<?xml version="1.0" standalone="no"?>
<!DOCTYPE svg PUBLIC "-//W3C//DTD SVG 20010904//EN"
 "http://www.w3.org/TR/2001/REC-SVG-20010904/DTD/svg10.dtd">
<svg version="1.0" xmlns="http://www.w3.org/2000/svg"
 width="640.000000pt" height="640.000000pt" viewBox="0 0 640.000000 640.000000"
 preserveAspectRatio="xMidYMid meet">
<metadata>
Created by potrace 1.11, written by Peter Selinger 2001-2013
</metadata>
<g transform="translate(0.000000,640.000000) scale(0.100000,-0.100000)"
fill="#000000" stroke="none">
<path d="M0 3200 l0 -3200 3200 0 3200 0 0 3200 0 3200 -3200 0 -3200 0 0
-3200z m2990 2804 c0 -2 -7 -4 -15 -4 -8 0 -15 4 -15 10 0 5 7 7 15 4 8 -4 15
-8 15 -10z m-11 -38 c-2 -2 -14 -9 -26 -15 -19 -10 -22 -9 -17 4 4 8 15 15 27
15 11 0 18 -2 16 -4z m581 -31 c10 -12 10 -15 -3 -15 -8 0 -20 7 -27 15 -10
12 -10 15 3 15 8 0 20 -7 27 -15z m-303 -11 c-3 -3 -12 -4 -19 -1 -8 3 -5 6 6
6 11 1 17 -2 13 -5z m-32 -24 c-3 -5 -16 -10 -28 -10 -18 0 -19 2 -7 10 20 13
43 13 35 0z m405 -60 c0 -5 -4 -10 -9 -10 -6 0 -13 5 -16 10 -3 6 1 10 9 10 9
0 16 -4 16 -10z m-490 -49 c0 -20 -23 -45 -33 -35 -7 8 14 54 25 54 4 0 8 -8
8 -19z m566 -12 c16 -18 16 -19 -4 -19 -12 0 -22 4 -22 9 0 5 -9 13 -20 16
-11 3 -20 10 -20 14 0 14 48 -1 66 -20z m-483 0 c4 -14 11 -20 20 -16 24 9 27
-39 5 -63 -27 -29 -15 -38 13 -11 30 27 43 27 35 -2 -3 -14 1 -31 10 -43 15
-18 15 -18 10 7 -4 17 0 31 8 38 20 16 81 9 81 -10 0 -8 6 -19 14 -25 11 -9
11 -13 1 -19 -10 -6 -10 -9 1 -15 9 -6 6 -14 -13 -32 -16 -14 -29 -39 -33 -63
l-6 -40 25 30 c14 17 25 39 26 51 0 11 4 24 9 30 5 5 16 29 24 54 9 27 22 46
32 49 13 2 16 -1 11 -14 -5 -13 -2 -16 10 -11 8 3 22 6 30 6 8 0 14 6 14 14 0
11 10 13 46 9 39 -4 54 -12 96 -55 33 -32 44 -48 32 -46 -14 2 -18 -2 -16 -17
5 -29 12 -32 23 -12 6 9 14 17 19 17 16 0 72 -64 61 -68 -18 -6 -12 -23 18
-51 32 -30 51 -84 51 -148 0 -23 7 -68 15 -100 8 -31 15 -85 15 -118 l0 -61
50 -13 c63 -16 64 -31 3 -31 -27 0 -61 -7 -76 -15 -28 -14 -62 -11 -51 6 3 5
16 9 29 9 13 0 27 5 31 12 5 8 0 9 -14 6 -12 -4 -20 -3 -17 2 3 4 -2 10 -10
14 -9 3 -21 -4 -31 -20 -10 -14 -22 -23 -29 -20 -7 2 -12 -7 -12 -25 0 -21 4
-26 11 -19 5 5 15 10 22 10 13 0 44 -75 44 -107 0 -12 5 -25 10 -28 6 -3 10
-2 10 4 0 17 59 78 80 84 18 4 20 2 14 -16 -14 -47 -36 -77 -64 -92 -25 -13
-29 -19 -20 -35 16 -30 12 -75 -10 -95 -19 -17 -21 -16 -69 9 -49 25 -102 33
-135 20 -25 -10 -19 -24 18 -39 21 -9 38 -26 46 -45 12 -28 11 -33 -11 -56
-18 -19 -31 -24 -51 -20 -15 3 -35 3 -44 -1 -11 -4 -6 -9 21 -19 82 -28 83
-28 105 16 11 22 25 40 30 40 16 0 12 -8 -27 -73 -36 -60 -37 -63 -37 -166
l-1 -105 95 -44 c52 -24 111 -51 130 -59 120 -52 164 -78 202 -120 24 -25 64
-65 89 -90 40 -38 49 -55 73 -136 15 -50 33 -102 39 -115 9 -19 7 -25 -10 -37
-20 -14 -21 -22 -17 -93 6 -100 21 -147 50 -162 13 -7 22 -16 19 -19 -2 -4 4
-21 12 -39 14 -29 20 -32 44 -27 27 6 27 5 42 -62 25 -112 29 -140 20 -146 -9
-6 -8 -156 3 -222 3 -22 20 -57 36 -78 44 -56 27 -68 -54 -38 -35 13 -74 26
-88 29 -37 8 -55 29 -40 47 10 12 7 17 -16 26 -16 6 -42 13 -57 16 -18 4 -27
12 -26 22 3 38 -2 81 -10 81 -4 0 -19 -37 -31 -82 -13 -46 -30 -91 -39 -101
-12 -15 -13 -22 -2 -38 11 -18 8 -25 -27 -63 -21 -23 -44 -40 -50 -38 -7 2
-12 -1 -12 -7 0 -6 6 -11 13 -11 8 -1 7 -5 -4 -13 -9 -7 -14 -18 -11 -25 4
-14 -28 -43 -40 -36 -4 3 -5 19 -2 37 9 60 11 107 5 107 -11 0 -32 -41 -26
-51 4 -5 -12 -28 -35 -50 -23 -23 -45 -51 -50 -64 -7 -20 -13 -22 -42 -16 -40
8 -125 -5 -155 -24 -23 -16 -22 -50 3 -59 20 -8 18 -28 -3 -24 -9 2 -18 14
-20 27 -4 31 -6 33 -28 25 -16 -7 -16 -8 0 -16 15 -9 13 -12 -12 -25 -15 -8
-41 -15 -56 -15 -24 1 -26 -2 -16 -14 7 -9 25 -22 41 -30 25 -13 28 -19 28
-69 0 -45 -4 -57 -25 -73 -13 -11 -22 -22 -18 -25 3 -4 0 -13 -6 -21 -9 -11
-10 -24 -2 -52 6 -21 8 -48 5 -60 -3 -12 -1 -25 5 -28 6 -4 11 -16 11 -26 0
-10 9 -35 21 -54 11 -19 18 -40 14 -45 -6 -11 -94 31 -106 51 -4 6 -8 56 -8
109 0 75 -4 104 -17 124 -12 18 -20 23 -29 15 -9 -7 -16 -6 -24 4 -11 13 -51
27 -86 32 -5 0 -18 4 -28 9 -9 4 -23 3 -30 -3 -10 -8 -11 12 -5 98 4 60 9 155
13 212 12 215 26 414 30 438 3 14 7 75 10 135 3 61 8 123 11 138 7 33 -4 33
149 -7 102 -26 267 -37 279 -17 4 5 -11 7 -33 4 -23 -3 -41 -1 -45 6 -4 6 -18
8 -30 5 -13 -3 -83 9 -155 27 -164 39 -166 42 -149 152 6 43 16 77 20 77 5 0
61 -13 125 -30 63 -16 120 -30 126 -30 24 0 -4 10 -98 34 -55 14 -115 34 -134
43 -32 17 -34 17 -47 -2 -8 -10 -14 -31 -14 -46 0 -15 -11 -69 -24 -120 -17
-63 -21 -99 -15 -110 6 -11 4 -42 -5 -86 -8 -41 -13 -123 -12 -207 1 -101 -2
-143 -11 -152 -7 -7 -12 -21 -12 -31 1 -17 2 -17 6 0 2 9 9 17 14 17 6 0 8 -3
6 -7 -3 -5 -15 -116 -27 -248 -12 -132 -26 -247 -32 -255 -6 -11 -8 -5 -4 20
3 19 8 73 11 120 5 75 20 216 30 292 4 36 -3 40 -27 16 -15 -15 -27 -18 -54
-13 -26 4 -44 1 -69 -15 -23 -14 -42 -19 -57 -15 -23 7 -23 7 -3 -9 13 -10 41
-15 76 -16 31 0 58 -2 61 -5 13 -13 -28 -155 -44 -155 -5 0 -8 -12 -8 -27 0
-16 -7 -36 -14 -46 -12 -15 -14 -16 -20 -2 -8 22 -34 18 -41 -6 -5 -14 0 -31
14 -50 14 -19 19 -37 15 -53 -4 -16 -1 -25 9 -29 18 -7 12 -43 -11 -70 -12
-13 -13 -20 -4 -29 24 -24 13 -62 -31 -105 -31 -30 -47 -39 -54 -32 -8 8 -15
4 -26 -11 -15 -21 -16 -21 -25 -3 -10 19 -4 103 18 228 15 87 14 101 -6 84
-13 -10 -17 -10 -25 2 -5 8 -9 20 -9 27 0 21 -26 13 -40 -13 -9 -17 -17 -22
-24 -15 -7 7 -6 14 2 22 7 7 12 19 12 28 0 12 -2 12 -9 2 -5 -8 -7 0 -7 22 1
19 5 38 9 42 4 4 7 18 7 31 0 15 6 23 16 23 13 0 14 3 5 13 -8 10 -7 19 5 33
13 17 16 18 26 2 11 -14 14 -15 35 -1 34 23 30 46 -6 38 -31 -7 -50 8 -29 22
7 4 13 16 13 26 0 9 2 16 5 15 3 -1 16 5 30 12 l24 13 -22 8 c-22 8 -22 9 -6
35 16 24 19 25 30 9 7 -9 17 -14 23 -10 16 9 13 25 -4 25 -22 0 -39 36 -20 44
11 4 15 20 15 56 0 30 4 50 11 50 8 0 8 4 1 13 -11 13 -4 77 14 136 5 17 4 22
-4 17 -7 -4 -12 -3 -12 1 0 14 23 40 40 46 11 3 8 8 -10 16 -24 11 -23 11 9 6
28 -4 32 -3 22 9 -8 9 -8 16 -2 20 5 4 12 3 15 -2 2 -4 21 -9 40 -10 35 -3 35
-2 30 28 -6 30 -1 35 34 31 8 -1 12 12 12 40 0 24 5 69 12 101 14 67 13 69
-87 119 -69 34 -157 59 -209 59 l-37 0 16 -30 c8 -16 16 -33 18 -37 2 -8 19
-9 51 -2 15 3 21 -4 28 -30 13 -47 -9 -61 -39 -26 -25 28 -43 32 -43 10 0 -22
-29 7 -60 60 -13 22 -56 82 -95 134 -122 163 -136 185 -133 211 2 14 -2 25 -9
25 -15 0 -42 35 -43 56 0 19 53 14 88 -9 28 -18 28 -9 1 30 -12 16 -31 48 -44
71 -12 23 -35 49 -51 57 -16 8 -34 22 -41 30 -11 13 -16 11 -37 -14 -15 -18
-30 -27 -40 -23 -25 10 -48 66 -49 126 -2 60 -6 64 -67 47 -23 -6 -25 -4 -26
29 0 19 4 35 9 35 5 0 6 15 3 34 -6 30 -3 37 16 48 13 7 29 11 36 10 22 -5 13
21 -20 55 l-32 33 46 0 c26 0 50 -5 54 -11 3 -6 15 -9 25 -6 14 4 19 0 20 -16
0 -12 3 -16 6 -9 4 10 8 9 19 -5 12 -17 13 -16 14 9 0 15 -4 30 -10 33 -16 10
-12 85 4 85 8 0 16 -5 18 -10 2 -7 14 -6 34 2 25 9 47 9 103 -2 52 -10 80 -10
105 -3 24 8 38 7 45 0 12 -12 15 -80 5 -90 -4 -4 -8 -21 -9 -39 -1 -18 -7 -48
-13 -65 -9 -28 -7 -39 14 -79 13 -25 37 -57 54 -70 16 -14 32 -33 35 -43 3
-10 22 -26 43 -35 50 -23 100 -67 104 -91 2 -16 -5 -21 -47 -29 -85 -16 -228
27 -292 86 -13 12 -25 19 -28 17 -2 -3 17 -50 44 -105 27 -54 66 -143 87 -196
l39 -97 75 1 c49 0 88 -5 112 -16 21 -9 47 -16 58 -16 23 0 154 -60 184 -84
24 -20 12 -40 -16 -25 -15 8 -19 8 -13 -1 4 -6 -3 -22 -16 -36 -18 -20 -20
-24 -6 -24 9 0 21 9 27 20 14 25 30 26 30 1 0 -23 -36 -52 -56 -44 -20 7 -17
-7 3 -22 37 -28 58 5 69 107 4 35 11 73 15 86 6 16 3 37 -10 70 -10 26 -24 61
-31 79 -7 18 -20 35 -29 38 -15 4 -46 73 -38 82 4 3 60 -14 105 -33 35 -15 52
-12 52 10 0 9 13 13 36 12 30 -1 38 3 40 19 2 11 6 35 10 53 5 24 2 38 -12 53
-15 17 -16 23 -5 41 10 17 10 23 -5 39 -9 10 -26 19 -36 19 -10 0 -21 7 -24
15 -7 17 -40 20 -49 5 -3 -5 -15 -10 -26 -10 -14 0 -19 7 -19 28 0 15 6 34 12
40 10 10 10 17 0 32 -10 17 -10 20 3 20 8 0 15 5 15 10 0 18 17 10 27 -12 7
-16 7 -28 -1 -40 -8 -14 -7 -21 6 -35 16 -16 18 -15 24 2 5 11 3 20 -4 23 -7
2 -12 8 -12 13 0 6 4 8 9 5 15 -10 6 28 -17 72 -21 39 -42 55 -42 32 0 -5 -10
-10 -22 -10 -17 0 -19 3 -10 12 7 7 12 24 12 39 0 15 7 32 15 39 18 15 20 30
3 30 -25 0 -88 35 -94 52 -3 10 -8 17 -12 17 -4 -1 -18 -1 -31 0 -18 1 -21 4
-13 14 16 19 3 60 -16 52 -17 -6 -44 13 -36 26 3 5 -10 7 -30 5 -26 -3 -36 -1
-36 9 0 8 7 11 19 8 10 -3 22 0 25 6 4 7 -1 11 -13 11 -17 0 -21 6 -21 29 0
17 -4 32 -10 36 -5 3 -7 11 -4 18 2 7 -4 22 -16 32 -11 10 -20 31 -20 47 0 37
-28 38 -36 1 -10 -49 -13 -53 -34 -53 -14 0 -20 7 -20 24 0 22 -3 24 -40 19
-38 -5 -43 -3 -81 38 -50 54 -117 188 -125 250 -6 43 -4 48 30 83 42 41 58 43
136 16 59 -20 81 -50 36 -50 -14 0 -27 4 -30 9 -8 12 -97 24 -106 14 -4 -4
-10 -21 -14 -36 -6 -27 -5 -28 21 -23 37 8 85 -26 66 -45 -17 -17 -16 -49 1
-49 7 0 19 -7 26 -15 13 -16 65 -21 56 -6 -3 5 1 15 10 22 14 11 18 10 30 -6
8 -10 14 -28 14 -40 0 -11 9 -26 20 -33 13 -8 20 -23 20 -42 0 -28 9 -38 22
-25 3 3 2 24 -2 46 -6 30 -4 42 6 46 15 6 19 50 5 72 -14 21 -2 45 30 64 38
21 75 22 114 1 19 -10 31 -11 33 -5 6 17 42 13 107 -10 83 -29 101 -39 85 -49
-20 -12 -4 -27 49 -45 27 -9 55 -23 62 -31 10 -13 16 -10 40 19 29 35 65 52
75 36 3 -5 1 -9 -5 -9 -5 0 -8 -8 -7 -17 2 -10 5 -18 7 -17 31 8 49 17 49 25
0 5 12 9 27 9 25 0 25 1 10 18 -10 10 -17 26 -17 35 0 23 -16 30 -50 22 -35
-8 -39 -22 -7 -28 12 -2 -12 -5 -53 -6 -42 0 -80 3 -85 8 -6 5 -73 26 -150 46
-175 47 -199 58 -185 86 6 11 13 45 14 75 4 58 9 69 48 88 20 10 23 20 25 76
2 36 7 66 11 68 22 7 46 31 39 38 -4 4 -12 3 -18 -3 -17 -17 -43 -5 -28 13 13
16 5 44 -12 44 -6 0 -8 -7 -5 -16 3 -9 0 -25 -8 -36 -14 -19 -15 -19 -23 -1
-5 10 -10 32 -11 50 -3 37 -20 89 -21 61 -2 -32 -20 -19 -32 23 -9 30 -10 48
-2 69 8 21 8 30 -1 33 -8 3 -7 9 3 20 18 23 28 21 34 -4z m296 8 c6 -8 8 -17
4 -20 -3 -4 -1 -7 5 -7 7 0 12 -5 12 -11 0 -6 -8 -9 -17 -7 -10 2 -18 10 -18
18 0 8 -7 20 -15 27 -13 11 -13 12 1 13 9 0 22 -6 28 -13z m-515 -66 c-4 -14
-8 -46 -9 -71 -3 -63 -4 -67 -15 -50 -5 8 -10 29 -10 45 0 23 -3 27 -10 15 -8
-12 -10 -9 -10 12 0 15 5 30 10 33 6 3 10 16 10 27 0 12 8 30 18 41 17 19 17
19 20 -3 2 -12 0 -34 -4 -49z m-184 35 c0 -2 -7 -7 -16 -10 -8 -3 -12 -2 -9 4
6 10 25 14 25 6z m1099 -67 c37 -27 39 -33 7 -25 -24 6 -24 5 -12 -19 13 -25
10 -75 -4 -75 -29 0 -70 15 -74 27 -4 11 -1 13 15 8 17 -6 20 -3 18 17 -2 12
0 28 4 35 7 11 -40 33 -73 33 -18 0 -70 43 -70 58 0 15 155 -34 189 -59z
m-857 29 c-15 -15 -26 -4 -18 18 5 13 9 15 18 6 9 -9 9 -15 0 -24z m-156 8
c20 -21 17 -28 -6 -16 -11 6 -20 15 -20 20 0 14 9 12 26 -4z m571 -13 c-9 -9
-19 -14 -23 -11 -10 10 6 28 24 28 15 0 15 -1 -1 -17z m-401 -29 c-3 -9 -6
-18 -6 -20 0 -3 -4 -3 -10 1 -11 7 -2 35 12 35 6 0 7 -7 4 -16z m96 -24 c6 0
8 -6 5 -14 -3 -8 3 -31 13 -52 24 -46 19 -54 -14 -23 -39 37 -61 107 -30 95 9
-3 20 -6 26 -6z m-137 -60 c-3 -5 3 -10 14 -10 17 0 21 -7 22 -37 0 -26 3 -32
8 -20 6 16 12 12 48 -27 23 -25 49 -46 58 -46 8 0 20 -12 25 -26 6 -14 15 -22
20 -19 11 7 40 -18 40 -34 0 -13 -17 -14 -24 -2 -3 5 -14 7 -24 4 -13 -3 -28
6 -45 27 -24 28 -27 29 -27 11 0 -25 -18 -28 -27 -3 -4 9 -12 20 -19 25 -7 4
-16 21 -19 39 -7 29 -9 30 -21 14 -11 -16 -14 -14 -33 27 -25 55 -27 87 -5 87
8 0 12 -4 9 -10z m780 -30 c3 -5 2 -10 -4 -10 -5 0 -13 5 -16 10 -3 6 -2 10 4
10 5 0 13 -4 16 -10z m-828 -107 c-11 -10 -27 8 -27 30 l0 21 16 -22 c9 -13
14 -26 11 -29z m11 -37 c3 -12 -1 -17 -10 -14 -7 3 -15 13 -16 22 -3 12 1 17
10 14 7 -3 15 -13 16 -22z m-73 -16 c3 -5 1 -10 -4 -10 -6 0 -11 5 -11 10 0 6
2 10 4 10 3 0 8 -4 11 -10z m117 -45 c6 -14 15 -25 20 -25 4 0 8 -4 8 -10 0
-5 -9 -10 -20 -10 -22 0 -27 -25 -7 -34 6 -3 1 -3 -13 0 -29 7 -50 22 -50 36
0 5 9 6 20 3 12 -4 20 -2 20 5 0 6 5 8 10 5 15 -9 12 4 -5 21 -17 18 -20 34
-5 34 6 0 16 -11 22 -25z m-62 -7 c0 -13 -23 -5 -28 10 -2 7 2 10 12 6 9 -3
16 -11 16 -16z m160 -16 c0 -10 5 -23 12 -30 6 -6 13 -19 14 -27 4 -26 -33 1
-40 30 -4 14 -11 25 -16 25 -6 0 -10 5 -10 10 0 6 9 10 20 10 13 0 20 -7 20
-18z m-115 -173 c-8 -12 -35 -12 -35 0 0 11 22 20 33 14 4 -2 5 -9 2 -14z
m965 -199 c0 -5 -2 -10 -4 -10 -3 0 -8 5 -11 10 -3 6 -1 10 4 10 6 0 11 -4 11
-10z m-110 -50 c0 -5 -4 -10 -10 -10 -5 0 -10 5 -10 10 0 6 5 10 10 10 6 0 10
-4 10 -10z m-791 -209 c10 -6 10 -10 1 -16 -8 -5 -7 -12 5 -25 9 -10 13 -20 8
-23 -11 -7 -60 48 -55 62 4 13 22 14 41 2z m-850 -251 c23 0 42 -49 34 -93 -4
-24 -2 -37 6 -37 6 0 11 -9 11 -20 0 -11 5 -20 10 -20 6 0 10 -4 10 -10 0 -5
-7 -7 -15 -4 -23 9 -18 -12 9 -33 23 -18 44 -73 28 -73 -5 0 -30 7 -56 16 -54
19 -61 16 -40 -14 12 -18 25 -22 67 -22 73 0 100 -9 91 -29 -5 -9 -7 -60 -6
-113 1 -72 8 -116 27 -174 14 -43 28 -95 31 -116 4 -21 11 -41 16 -44 6 -4 5
-10 -3 -15 -11 -7 -10 -9 4 -9 10 0 17 7 17 18 0 34 -21 177 -31 210 -14 45 2
68 34 48 36 -22 79 -29 89 -14 10 16 25 -2 34 -42 18 -77 27 -104 31 -93 2 6
0 35 -5 65 -6 29 -8 57 -4 62 3 5 25 -30 49 -78 24 -48 73 -126 109 -174 71
-93 127 -195 139 -252 4 -19 16 -47 27 -62 16 -24 22 -26 39 -15 16 10 21 9
29 -3 16 -24 11 -40 -11 -40 -11 0 -17 -4 -14 -10 3 -6 -4 -10 -17 -10 -18 0
-20 -2 -8 -9 8 -6 17 -8 21 -5 4 2 13 -4 20 -13 8 -9 10 -14 4 -11 -5 3 -16 0
-23 -8 -11 -12 -9 -14 13 -14 14 0 25 -4 25 -9 0 -21 -20 -60 -41 -80 -12 -11
-20 -23 -17 -26 7 -7 102 -24 109 -19 14 9 18 -41 4 -56 -8 -9 -15 -25 -15
-34 0 -10 -9 -30 -19 -45 -11 -14 -22 -49 -26 -76 -4 -28 -14 -65 -21 -84 -8
-18 -14 -44 -14 -56 0 -13 -10 -49 -22 -80 -21 -54 -23 -57 -51 -51 -16 3 -43
6 -59 6 -16 0 -27 4 -23 9 3 6 -4 15 -15 21 l-20 11 20 21 c11 12 20 30 20 39
0 16 -68 79 -86 79 -13 0 -76 141 -70 156 3 7 1 16 -4 19 -5 3 -7 11 -4 18 6
17 -22 54 -33 44 -4 -5 -8 -45 -8 -90 0 -46 -5 -82 -10 -82 -6 0 -10 40 -10
94 0 86 -2 95 -23 109 -27 18 -29 36 -2 27 18 -6 20 -2 17 37 -2 29 -7 42 -15
40 -13 -2 -42 21 -42 33 0 4 11 4 25 1 20 -5 25 -3 25 13 0 12 -11 26 -27 34
l-27 14 37 18 c20 9 40 14 45 11 6 -3 7 -34 5 -68 -5 -52 -3 -63 13 -75 16
-11 17 -19 8 -52 -10 -36 -9 -39 9 -38 16 1 18 7 13 39 -5 29 -3 40 9 44 17 7
21 59 5 69 -15 9 -12 46 5 79 8 15 15 36 14 45 -1 9 -4 5 -9 -9 -7 -22 -8 -20
-9 15 -2 40 -22 81 -34 68 -4 -3 -7 -20 -7 -37 0 -17 -4 -36 -8 -41 -8 -11
-76 -39 -192 -79 -41 -15 -84 -31 -96 -37 -15 -8 -48 -8 -115 1 -132 16 -137
17 -132 44 3 13 -2 28 -13 37 -16 12 -17 12 -11 -3 3 -10 2 -18 -3 -18 -6 0
-10 7 -10 15 0 8 -14 17 -35 21 -19 3 -32 11 -29 16 4 5 15 8 25 5 11 -3 17
-1 13 4 -3 5 -16 9 -28 9 -13 0 -29 6 -35 14 -6 8 -23 16 -38 19 -19 3 -27 0
-30 -14 -7 -27 -23 -23 -23 5 0 26 -21 47 -28 28 -2 -7 -10 -12 -18 -12 -10 0
-14 14 -15 48 0 26 -3 41 -6 35 -8 -20 -23 -15 -23 8 0 11 -5 17 -10 14 -6 -3
-7 -17 -4 -31 5 -18 2 -24 -10 -24 -12 0 -16 9 -16 34 0 29 4 34 31 40 18 3
28 10 24 16 -4 7 -19 8 -37 4 -26 -5 -30 -4 -25 11 4 9 7 21 7 26 0 6 8 6 19
-1 16 -8 21 -6 26 11 5 14 2 25 -6 30 -12 7 -11 11 3 25 13 13 14 22 6 43 -10
26 2 139 23 224 8 31 14 37 36 37 15 0 41 -5 59 -12 l32 -11 1 -113 c1 -119 6
-144 25 -144 9 0 13 17 13 48 1 126 6 209 15 225 5 9 6 32 3 51 -6 29 -11 34
-43 39 -21 4 -46 8 -57 11 -11 2 -31 5 -45 5 -24 1 -26 5 -26 46 -1 25 3 45 8
45 4 0 6 11 2 25 -5 21 -3 25 15 25 12 0 21 5 21 10 0 6 11 10 25 10 14 0 25
-5 25 -11 0 -5 -4 -8 -9 -5 -5 3 -11 -1 -15 -9 -3 -8 -1 -15 5 -15 6 0 9 -6 6
-14 -6 -16 32 -36 71 -36 15 0 34 -5 42 -10 11 -7 1 -10 -34 -10 -48 0 -48 0
-34 -22 14 -21 23 -23 117 -23 55 0 101 -2 101 -5 1 -21 19 -30 43 -21 29 11
30 24 7 76 -8 17 -14 37 -15 46 -1 9 -12 47 -23 86 -21 69 -22 69 -57 69 -40
-1 -41 -3 -20 -26 9 -10 17 -30 18 -46 1 -16 7 -32 12 -36 6 -4 2 -8 -7 -8
-10 0 -18 5 -18 11 0 5 -12 26 -27 45 -23 28 -35 34 -65 34 -31 0 -38 4 -38
20 0 11 -6 20 -13 20 -17 0 -88 -38 -113 -61 -11 -11 -24 -16 -27 -12 -11 11
-8 41 5 45 7 3 9 12 4 24 -7 18 -9 17 -22 -8 -7 -14 -15 -50 -18 -80 -2 -29
-7 -61 -11 -71 -4 -9 -2 -23 4 -31 12 -14 5 -91 -9 -111 -4 -5 -10 -26 -13
-45 -2 -19 -17 -78 -31 -130 -18 -63 -27 -119 -27 -170 0 -119 -16 -155 -36
-82 -10 34 -11 35 -13 10 -1 -16 -3 -33 -4 -40 -2 -20 -24 -20 -35 0 -6 11
-13 69 -15 131 -3 61 -10 128 -15 148 -6 21 -13 59 -16 85 -3 25 -13 52 -20
58 -19 16 -19 31 0 105 23 90 25 94 37 65 6 -14 12 -20 15 -13 2 7 -9 39 -25
71 l-30 58 29 13 c16 7 27 17 23 22 -3 5 3 12 13 16 9 4 30 20 46 36 35 36
110 70 223 103 123 36 221 53 273 48 24 -2 51 -4 60 -4z m-69 -339 c14 -28 13
-39 -7 -44 -14 -4 -13 -5 4 -6 12 0 25 -6 28 -11 12 -19 -26 -22 -70 -5 -52
19 -61 41 -14 31 25 -5 30 -3 25 9 -6 18 2 45 15 45 4 0 13 -9 19 -19z m471
-59 c16 -18 32 -52 24 -52 -9 0 -62 60 -57 65 9 9 17 6 33 -13z m-130 -94 c10
-3 8 -8 -8 -17 -21 -10 -25 -8 -42 20 -25 41 -16 58 13 26 12 -13 29 -26 37
-29z m784 22 c3 -5 -1 -10 -9 -10 -9 0 -16 5 -16 10 0 6 4 10 9 10 6 0 13 -4
16 -10z m-1723 -192 c2 -51 -4 -145 -17 -243 -20 -144 -20 -165 -7 -205 7 -25
22 -76 32 -115 10 -38 21 -78 25 -87 5 -12 2 -20 -9 -24 -21 -8 -20 -23 2 -47
16 -19 16 -20 -5 -15 -13 4 -26 2 -29 -3 -8 -14 -47 -11 -72 7 -13 9 -46 24
-75 34 -52 18 -65 35 -53 67 5 13 9 14 19 4 7 -7 12 -17 12 -23 0 -18 52 -51
70 -44 13 5 16 14 11 39 -3 17 -9 48 -11 67 -3 19 -8 46 -11 59 -9 39 -5 293
5 305 5 6 12 31 16 56 4 25 15 60 26 78 10 17 15 40 12 49 -4 9 -2 14 3 11 5
-4 10 5 10 18 4 54 16 94 28 94 10 0 15 -22 18 -82z m1722 -373 c18 -13 15
-19 -6 -16 -4 0 -5 -6 -2 -13 5 -14 -17 -56 -43 -84 -10 -10 -13 -11 -13 -1 0
7 -10 3 -23 -10 -20 -18 -28 -20 -51 -11 -35 13 -59 13 -51 0 8 -14 -3 -13
-18 2 -23 21 -8 65 27 82 17 8 42 26 55 40 28 30 93 35 125 11z m-1680 -11 c3
-8 2 -12 -4 -9 -6 3 -10 10 -10 16 0 14 7 11 14 -7z m461 -194 c3 -5 -1 -10
-9 -10 -9 0 -16 5 -16 10 0 6 4 10 9 10 6 0 13 -4 16 -10z m455 0 c-8 -5 -24
-9 -35 -9 -16 1 -16 2 5 9 35 11 48 11 30 0z m-66 -50 c21 0 21 -29 -1 -47
-10 -8 -13 -12 -7 -9 15 7 38 -20 29 -34 -3 -5 -13 -10 -21 -10 -20 0 -18 -13
6 -33 22 -19 28 -53 8 -41 -7 4 4 -11 25 -34 20 -23 37 -49 37 -57 0 -8 8 -15
18 -15 23 0 42 -19 42 -42 0 -28 -24 -22 -66 17 -35 32 -40 34 -51 19 -22 -30
23 -97 98 -146 36 -23 49 -38 49 -55 0 -28 -11 -30 -28 -3 -15 25 -31 25 -48
3 -12 -16 -13 -16 -14 -1 0 9 -20 28 -44 42 -53 31 -56 32 -56 6 0 -11 -4 -20
-8 -20 -4 0 -6 16 -4 35 4 30 0 37 -29 54 -21 13 -28 21 -17 21 9 0 20 -4 23
-10 9 -14 25 -12 25 3 0 17 -63 44 -68 29 -14 -44 -43 38 -37 105 3 23 0 45
-5 48 -6 3 -10 15 -10 25 0 30 -20 67 -44 79 -21 11 -21 11 2 7 19 -4 22 0 20
16 -2 16 4 23 22 29 14 4 45 16 70 27 38 17 47 18 56 6 6 -8 19 -14 28 -14z
m56 -104 c0 -11 -19 -15 -25 -6 -3 5 1 10 9 10 9 0 16 -2 16 -4z m-1205 -46
c-3 -5 -12 -7 -20 -3 -21 7 -19 13 6 13 11 0 18 -4 14 -10z m1280 -20 c3 -6
-1 -13 -10 -16 -19 -8 -30 0 -20 15 8 14 22 14 30 1z m-1865 -150 c0 -5 -4
-10 -10 -10 -5 0 -10 5 -10 10 0 6 5 10 10 10 6 0 10 -4 10 -10z m1633 -70
c-8 -31 -23 -23 -23 11 0 26 3 29 14 20 8 -7 12 -21 9 -31z m-1156 -92 c52 -9
67 -16 73 -34 5 -12 17 -27 27 -33 10 -6 13 -11 6 -11 -6 0 -24 11 -40 24 -18
15 -53 29 -93 36 -36 7 -74 16 -85 20 -32 14 36 12 112 -2z m4807 -45 c-15
-27 -45 -66 -66 -89 -21 -22 -36 -43 -32 -46 3 -4 -15 -15 -40 -27 -25 -11
-46 -22 -46 -24 0 -2 11 -32 25 -67 38 -98 29 -103 -23 -13 l-48 81 -45 -22
c-62 -32 -223 -100 -343 -146 -26 -9 -26 -10 -10 -35 15 -23 15 -25 0 -25 -17
0 -22 -15 -7 -24 4 -3 11 -19 14 -36 4 -16 12 -30 18 -30 6 0 9 7 5 15 -13 35
4 11 31 -41 15 -31 34 -59 41 -61 6 -3 31 2 53 11 23 9 43 15 45 13 2 -2 -16
-12 -40 -22 -41 -17 -44 -21 -39 -47 6 -28 -10 -40 -21 -15 -5 10 -7 10 -12 0
-3 -7 -20 -13 -38 -13 -27 0 -36 6 -55 40 -22 39 -147 170 -163 170 -4 0 -8 7
-8 15 0 8 -4 15 -9 15 -18 0 -23 -21 -10 -36 7 -9 14 -26 16 -37 3 -22 2 -22
-17 2 -11 13 -20 29 -20 37 0 16 -9 18 -27 6 -8 -5 -2 -20 20 -49 18 -23 50
-65 73 -95 52 -67 74 -110 74 -143 0 -20 -4 -26 -17 -23 -10 2 -19 10 -19 18
-1 8 -2 22 -3 30 -1 10 -4 11 -12 3 -15 -15 -108 16 -121 41 -6 11 -22 31 -35
45 -33 35 -56 80 -49 97 5 12 1 15 -20 14 -3 -1 -14 9 -24 22 -11 13 -19 20
-20 16 0 -17 51 -119 99 -196 28 -46 54 -94 57 -106 5 -22 3 -23 -46 -22 -43
1 -54 6 -75 31 -14 17 -32 45 -40 63 -8 17 -19 32 -24 32 -16 0 -14 -10 15
-85 29 -78 29 -117 -1 -121 -19 -3 -55 21 -55 38 0 4 -13 29 -29 55 -22 35
-27 51 -19 60 8 10 7 18 -4 31 -27 31 -48 98 -36 110 19 19 2 25 -24 9 -12 -9
-87 -41 -165 -72 -132 -52 -142 -58 -132 -76 11 -22 23 -20 96 11 34 15 41 22
36 39 -6 25 12 28 25 5 8 -15 14 -14 57 5 68 30 70 25 3 -8 -35 -17 -53 -32
-48 -37 13 -13 60 -145 50 -139 -5 3 -16 25 -26 50 -9 25 -21 45 -25 45 -17 0
-13 -15 24 -86 l17 -31 -56 -21 -55 -20 -13 21 c-8 12 -21 36 -30 52 l-16 30
6 -27 c3 -16 3 -28 0 -28 -8 0 -66 120 -66 137 0 7 -2 13 -5 13 -5 0 -386
-150 -396 -156 -3 -2 4 -25 17 -51 28 -56 29 -63 10 -63 -8 0 -17 12 -20 26
-4 15 -12 24 -19 21 -37 -15 -49 -16 -24 -2 28 16 30 20 19 46 -6 13 -29 6
-152 -42 -80 -31 -156 -62 -170 -67 -14 -6 -79 -32 -145 -57 -66 -26 -133 -52
-150 -59 -48 -21 -107 -44 -147 -57 -40 -14 -47 -29 -23 -49 22 -19 19 -25
-22 -43 -46 -19 -105 -32 -84 -18 8 5 11 16 8 25 -8 21 10 30 21 11 6 -12 16
-14 35 -10 31 8 30 6 17 40 l-10 26 -37 -20 c-21 -11 -50 -22 -65 -25 -28 -6
-37 -29 -18 -41 12 -8 13 -35 1 -35 -5 0 -12 11 -15 25 -5 18 -13 25 -31 25
-13 0 -26 -4 -30 -9 -3 -5 -19 -12 -35 -16 -17 -4 -30 -11 -30 -16 0 -5 -11
-9 -24 -9 -14 0 -28 -5 -32 -11 -4 -8 -9 -8 -17 0 -7 7 -8 14 -1 21 8 8 126
56 382 153 45 17 82 38 82 45 0 19 -48 112 -79 151 -55 72 -158 167 -206 191
-44 22 -62 25 -151 24 -91 0 -106 -3 -165 -32 -67 -32 -96 -58 -253 -220 -50
-52 -108 -101 -133 -113 -47 -23 -155 -30 -228 -16 -38 7 -36 5 40 -44 141
-91 201 -146 270 -249 67 -99 73 -116 53 -153 -6 -12 -14 -51 -17 -87 -5 -58
-9 -65 -28 -68 -15 -2 -23 -10 -23 -23 0 -11 -11 -31 -25 -45 -21 -21 -27 -23
-45 -12 -11 7 -23 27 -26 45 -3 18 -23 51 -44 73 -21 22 -41 47 -44 56 -3 8
-10 13 -15 10 -5 -3 -21 12 -36 34 -27 40 -72 76 -82 66 -3 -3 -2 -18 3 -33 4
-15 6 -47 5 -70 -2 -35 4 -50 37 -95 21 -29 56 -86 78 -125 41 -76 69 -97 89
-69 15 20 24 20 46 0 10 -9 37 -20 60 -25 47 -11 69 -25 69 -44 0 -9 -18 -12
-71 -8 -68 4 -129 24 -129 42 0 5 -18 11 -40 15 -30 5 -43 13 -54 34 -8 15
-35 48 -60 74 -43 45 -96 141 -96 174 0 8 -4 13 -10 9 -5 -3 -7 -12 -3 -20 11
-30 -15 -14 -45 29 -28 39 -43 71 -25 53 3 -4 12 8 18 27 9 26 10 44 1 71 -6
19 -14 35 -18 35 -4 0 -23 14 -41 30 -35 31 -53 66 -35 72 11 4 -2 36 -31 83
-11 17 -20 38 -20 48 -1 9 -7 17 -13 18 -9 0 -9 2 -2 5 19 8 1 61 -29 84 -16
13 -36 20 -47 17 -11 -3 -23 -1 -26 5 -3 5 -11 7 -18 5 -23 -9 -56 12 -56 36
0 13 -13 37 -30 53 -16 16 -30 33 -30 38 0 4 -11 17 -25 28 -29 23 -31 35 -8
83 18 37 13 55 -11 36 -10 -8 -16 -9 -21 -1 -3 5 1 10 9 10 32 0 7 56 -37 85
-15 9 -30 28 -33 41 -3 13 -13 24 -21 24 -29 0 31 64 68 72 82 18 219 -43 219
-97 0 -29 -11 -31 -46 -9 -19 13 -28 14 -37 5 -6 -6 -23 -11 -38 -11 -34 0
-59 -9 -59 -21 0 -5 11 -9 24 -9 14 0 28 -5 31 -10 3 -6 17 -10 29 -10 49 0
96 -33 233 -167 139 -136 143 -140 225 -168 116 -41 204 -41 273 -1 28 16 107
89 179 163 113 117 139 138 205 170 72 35 82 37 176 38 92 0 105 -3 165 -31
110 -53 216 -165 285 -304 15 -30 28 -56 30 -58 1 -1 23 6 47 17 42 18 46 22
44 53 -2 18 -5 40 -9 48 -5 13 -16 103 -17 138 0 19 -19 14 -45 -12 -21 -22
-26 -22 -44 -9 -23 16 -25 21 -12 42 8 13 12 13 26 1 15 -12 18 -12 26 3 6 9
18 17 29 17 12 0 20 8 22 22 2 13 15 29 31 36 25 12 29 11 47 -10 11 -13 19
-31 20 -40 0 -10 9 -23 20 -30 11 -7 20 -23 20 -36 0 -13 4 -21 9 -17 5 3 12
1 16 -5 3 -5 -1 -10 -9 -10 -10 0 -13 -6 -10 -15 4 -8 1 -15 -6 -15 -7 0 -9
-8 -5 -19 3 -11 1 -22 -5 -26 -6 -3 -7 -11 -4 -17 5 -7 2 -9 -8 -5 -20 7 -44
-11 -53 -41 l-6 -22 73 26 c65 23 135 52 178 74 8 4 14 17 14 29 -1 11 3 21 7
21 5 0 9 11 9 25 0 14 9 43 20 65 11 22 20 47 20 56 0 10 5 14 15 10 17 -6 20
5 6 19 -6 6 -4 17 4 29 12 16 13 2 12 -98 -1 -64 1 -116 5 -116 7 0 496 191
625 244 44 19 106 54 136 79 31 25 69 48 86 52 17 4 33 11 36 16 9 14 -33 11
-65 -6 -18 -9 -31 -11 -35 -5 -3 6 -24 10 -47 10 -35 0 -40 3 -35 19 3 12 -1
22 -11 26 -13 5 -14 8 -3 14 11 7 11 15 -3 42 -16 33 -16 35 2 47 19 13 19 14
-6 39 l-26 26 25 10 24 10 -30 7 -30 6 40 22 40 21 -36 1 c-55 0 -59 27 -6 33
23 3 54 8 69 12 23 6 32 1 60 -31 18 -22 50 -56 70 -76 21 -21 32 -38 25 -38
-16 0 104 -109 121 -110 6 0 15 -1 19 -2 3 -2 7 8 8 20 4 50 62 56 107 11 30
-29 32 -30 73 -18 33 10 41 17 38 30 -5 19 27 33 63 28 28 -4 100 19 114 36
11 13 10 14 -5 9 -14 -6 -16 -4 -10 6 5 9 4 11 -4 6 -6 -4 -14 0 -17 9 -4 9
-13 14 -20 11 -19 -7 -18 19 2 38 22 22 59 30 83 16 15 -8 21 -20 21 -46 0
-25 4 -35 13 -31 164 63 410 161 435 174 34 17 122 107 122 124 0 15 31 59 42
59 5 0 -3 -21 -18 -47z m-3428 23 c19 -20 18 -26 -6 -26 -13 0 -20 7 -20 20 0
24 6 25 26 6z m-56 -33 c0 -6 -67 -33 -82 -33 -7 1 2 9 20 18 18 10 30 21 26
24 -3 4 3 4 15 1 12 -3 21 -7 21 -10z m1940 -4 c27 -6 50 -13 50 -17 0 -17
-37 -42 -62 -42 -15 0 -28 -3 -28 -8 0 -21 47 -32 140 -33 121 -2 129 -17 20
-38 -59 -12 -79 -12 -109 -1 -38 13 -91 56 -91 74 0 6 -12 20 -27 33 -22 18
-24 22 -10 23 9 0 17 5 17 10 0 13 36 13 100 -1z m-3306 -20 c26 -7 35 -13 26
-19 -19 -12 -3 -29 53 -54 61 -27 108 -66 90 -73 -25 -9 -13 -21 27 -28 55 -9
60 -25 9 -25 l-43 0 34 -25 c49 -36 80 -77 69 -91 -7 -8 2 -19 28 -35 29 -17
34 -24 21 -27 -21 -4 -23 -18 -4 -25 15 -6 29 -47 15 -47 -10 0 6 -33 30 -62
12 -16 11 -17 -20 -8 -19 6 -45 10 -60 10 -26 0 -61 30 -72 62 -3 9 -24 22
-46 28 -23 6 -41 15 -41 19 0 14 -43 21 -57 9 -15 -12 -47 8 -37 23 3 5 0 24
-7 43 -11 31 -10 36 15 62 l26 29 -53 5 c-58 5 -122 47 -112 72 7 17 138 53
160 44 8 -3 24 -2 36 2 18 7 19 10 6 20 -21 18 -57 18 -89 2 -25 -12 -33 -10
-83 12 -52 24 -54 25 -31 36 17 7 27 7 35 -1 11 -11 15 2 14 41 -1 15 11 15
61 1z m167 -57 c-7 -2 -18 1 -23 6 -8 8 -4 9 13 5 13 -4 18 -8 10 -11z m1586
-34 c-3 -13 -9 -36 -13 -53 -4 -16 -11 -32 -15 -35 -5 -3 -10 -62 -12 -131 -2
-69 -9 -135 -16 -146 -6 -12 -11 -31 -11 -42 0 -11 -4 -31 -10 -46 l-10 -26
-30 23 c-29 21 -30 23 -10 30 11 4 20 14 20 22 0 15 -14 19 -100 30 -73 9
-100 23 -63 32 23 6 49 47 39 62 -7 11 16 22 47 22 12 0 28 9 35 20 7 12 17
18 22 15 6 -3 10 1 10 9 0 9 -4 16 -10 16 -5 0 -10 5 -10 10 0 6 6 10 13 8 16
-4 54 35 49 50 -2 7 2 12 8 12 7 0 5 6 -4 16 -19 19 -20 25 -4 61 17 41 39 63
61 63 15 0 18 -5 14 -22z m-637 -8 c0 -5 -5 -10 -11 -10 -5 0 -7 5 -4 10 3 6
8 10 11 10 2 0 4 -4 4 -10z m-30 -4 c0 -2 -7 -6 -15 -10 -8 -3 -15 -1 -15 4 0
6 7 10 15 10 8 0 15 -2 15 -4z m3474 -152 c-18 -15 -18 -15 6 -9 70 17 68 18
90 -32 15 -35 17 -48 8 -54 -7 -4 -16 -5 -20 -3 -4 3 -8 0 -8 -6 0 -12 -46
-33 -95 -44 -22 -5 -26 -4 -15 3 13 9 12 13 -7 26 -13 9 -23 22 -23 30 0 7 -5
15 -12 17 -17 6 0 27 30 40 18 7 22 12 13 16 -10 3 -7 8 10 18 33 18 47 17 23
-2z m-124 -30 c0 -8 -4 -12 -10 -9 -5 3 -10 13 -10 21 0 8 5 12 10 9 6 -3 10
-13 10 -21z m60 12 c0 -2 -7 -7 -16 -10 -8 -3 -12 -2 -9 4 6 10 25 14 25 6z
m-2710 -20 c0 -3 -4 -8 -10 -11 -5 -3 -10 -1 -10 4 0 6 5 11 10 11 6 0 10 -2
10 -4z m2670 -37 c0 -6 -4 -7 -10 -4 -5 3 -10 11 -10 16 0 6 5 7 10 4 6 -3 10
-11 10 -16z m-1071 -81 c11 -37 27 -81 36 -98 8 -16 13 -30 9 -30 -4 0 -1 -7
6 -15 7 -9 10 -18 7 -21 -7 -7 -47 55 -47 74 0 7 -4 20 -9 30 -25 48 -50 129
-43 137 10 10 20 -8 41 -77z m-1529 58 c0 -3 -4 -8 -10 -11 -5 -3 -10 -1 -10
4 0 6 5 11 10 11 6 0 10 -2 10 -4z m1479 -49 c0 -27 -2 -29 -9 -12 -12 28 -12
57 0 50 6 -3 10 -21 9 -38z m-1549 29 c0 -3 -4 -8 -10 -11 -5 -3 -10 -1 -10 4
0 6 5 11 10 11 6 0 10 -2 10 -4z m1620 -10 c0 -3 -4 -8 -10 -11 -5 -3 -10 -1
-10 4 0 6 5 11 10 11 6 0 10 -2 10 -4z m846 -43 c-4 -4 -11 -1 -16 7 -16 25
-11 35 7 17 9 -9 13 -20 9 -24z m-896 -41 c0 -15 -2 -15 -10 -2 -13 20 -13 33
0 25 6 -3 10 -14 10 -23z m736 -24 c44 -52 53 -88 20 -75 -13 5 -56 76 -56 92
0 12 18 3 36 -17z m-1331 3 c3 -5 1 -12 -5 -16 -5 -3 -10 1 -10 9 0 18 6 21
15 7z m745 -12 c0 -11 -27 -12 -34 -1 -2 4 4 9 15 9 10 1 19 -2 19 -8z m-110
-68 c-1 -13 -30 34 -30 48 0 9 7 3 15 -13 8 -15 15 -31 15 -35z m-2350 42 c-1
-14 -27 -43 -38 -43 -6 0 -14 -9 -17 -20 -7 -21 -53 -50 -80 -50 -23 0 -9 19
53 73 48 43 83 59 82 40z m546 -68 c18 -9 23 -15 12 -15 -9 0 -23 -3 -32 -6
-12 -4 -16 0 -16 15 0 25 0 25 36 6z m184 -25 c0 -5 -7 -10 -16 -10 -8 0 -12
5 -9 10 3 6 10 10 16 10 5 0 9 -4 9 -10z m-2020 -25 c0 -8 -7 -15 -15 -15 -8
0 -15 7 -15 15 0 8 7 15 15 15 8 0 15 -7 15 -15z m957 -82 c-3 -10 -5 -4 -5
12 0 17 2 24 5 18 2 -7 2 -21 0 -30z m1903 22 c0 -8 -4 -15 -10 -15 -5 0 -7 7
-4 15 4 8 8 15 10 15 2 0 4 -7 4 -15z m660 -52 c-30 -13 -56 -26 -57 -27 -1
-1 5 -21 13 -45 17 -49 13 -81 -5 -37 -21 52 -23 18 -3 -39 l20 -55 -38 -20
c-22 -11 -46 -20 -54 -20 -12 0 -14 -5 -6 -25 16 -42 1 -28 -19 18 -10 23 -35
77 -55 119 -20 42 -36 80 -36 83 0 11 28 5 33 -7 3 -10 17 -8 60 6 51 17 56
21 51 43 -7 26 10 32 24 7 7 -13 14 -13 58 5 70 28 80 24 14 -6z m-640 -20 c0
-20 -3 -24 -11 -16 -7 7 -9 19 -6 27 10 24 17 19 17 -11z m-2782 -63 c-4 -59
-19 -66 -32 -15 -10 41 -3 65 19 65 12 0 15 -10 13 -50z m52 20 c0 -5 -4 -10
-10 -10 -5 0 -10 5 -10 10 0 6 5 10 10 10 6 0 10 -4 10 -10z m3135 -30 c-3 -5
-11 -10 -16 -10 -6 0 -7 5 -4 10 3 6 11 10 16 10 6 0 7 -4 4 -10z m375 -23 c0
-5 -4 -5 -10 -2 -5 3 -10 14 -10 23 0 15 2 15 10 2 5 -8 10 -19 10 -23z m618
16 c6 -19 -25 -16 -32 3 -4 11 -1 14 11 12 9 -2 18 -9 21 -15z m-2240 -19 c12
-8 22 -22 22 -31 0 -19 -28 -53 -43 -53 -6 0 -2 9 7 19 22 24 14 54 -17 69
-14 7 -17 11 -7 11 9 1 26 -6 38 -15z m1202 6 c-20 -13 -33 -13 -25 0 3 6 14
10 23 10 15 0 15 -2 2 -10z m645 0 c-3 -5 -14 -10 -23 -10 -15 0 -15 2 -2 10
20 13 33 13 25 0z m-1905 -52 c0 -11 -8 -18 -20 -18 -23 0 -24 1 -8 35 12 27
28 18 28 -17z m-2145 12 c0 -7 -6 -15 -12 -17 -8 -3 -13 4 -13 17 0 13 5 20
13 18 6 -3 12 -11 12 -18z m3985 14 c0 -7 -108 -54 -123 -53 -7 0 15 13 48 29
63 30 75 34 75 24z m-1798 -19 c0 -5 -5 -11 -11 -13 -6 -2 -11 4 -11 13 0 9 5
15 11 13 6 -2 11 -8 11 -13z m1034 -2 c4 -10 8 -20 9 -23 2 -11 46 -126 55
-145 17 -39 23 -68 11 -61 -6 4 -11 13 -12 19 0 18 -58 134 -58 119 -1 -7 6
-29 14 -49 28 -67 20 -82 -44 -89 -35 -3 -39 -1 -54 35 -9 21 -17 43 -17 49 0
7 -4 12 -10 12 -5 0 -10 6 -10 13 0 8 -7 28 -16 45 -18 37 -9 65 13 36 12 -17
16 -17 56 -3 34 13 41 20 39 38 -4 25 13 28 24 4z m448 1 c3 -8 2 -12 -4 -9
-6 3 -10 10 -10 16 0 14 7 11 14 -7z m174 -9 c-3 -3 -9 2 -12 12 -6 14 -5 15
5 6 7 -7 10 -15 7 -18z m-445 -90 c20 -58 12 -58 -13 1 -23 52 -24 58 -11 50
5 -4 16 -26 24 -51z m427 50 c0 -9 -83 -45 -100 -44 -8 0 8 11 35 24 52 25 65
29 65 20z m-782 -40 c17 8 32 12 32 9 0 -4 -86 -44 -95 -44 -6 0 -13 39 -7 44
3 4 12 0 21 -8 14 -12 21 -12 49 -1z m642 -20 c0 -10 -84 -45 -105 -44 -11 0
5 11 35 24 59 25 70 28 70 20z m-795 -22 c5 -10 9 -24 11 -31 1 -8 6 -21 10
-30 4 -9 8 -19 9 -22 8 -23 19 -50 31 -79 8 -18 12 -36 10 -39 -3 -3 -13 12
-22 34 -9 21 -29 67 -45 101 -16 34 -29 67 -29 73 0 16 17 12 25 -7z m154 -88
c16 -44 32 -89 37 -99 5 -14 4 -17 -4 -12 -7 4 -12 13 -12 19 -1 7 -18 48 -39
92 -21 44 -36 84 -34 88 9 15 22 -7 52 -88z m-251 49 c7 -13 13 -14 30 -5 28
15 42 14 36 -3 -3 -7 2 -16 10 -19 9 -4 16 -17 16 -29 0 -13 12 -41 25 -63 14
-22 25 -45 25 -52 0 -18 -39 -36 -58 -27 -9 4 -20 7 -23 6 -3 0 -6 20 -7 45 0
25 -5 50 -11 56 -8 8 -10 2 -6 -23 5 -33 4 -32 -19 15 -24 48 -24 50 -5 53 10
2 19 8 19 13 0 6 -10 8 -22 4 -13 -4 -32 -9 -43 -11 -19 -5 -19 -4 -2 9 10 9
15 21 11 31 -8 21 12 21 24 0z m642 -17 c0 -5 -4 -5 -10 -2 -5 3 -10 14 -10
23 0 15 2 15 10 2 5 -8 10 -19 10 -23z m110 18 c0 -8 -89 -45 -103 -44 -7 0
11 11 38 24 52 25 65 29 65 20z m-846 -38 c7 -7 13 -19 14 -27 0 -8 8 -35 17
-59 24 -66 13 -72 -15 -7 -23 55 -33 65 -45 46 -3 -5 -15 -10 -26 -10 -10 0
-19 -2 -19 -3 0 -9 41 -125 52 -144 6 -13 8 -26 5 -30 -4 -3 -14 11 -23 33 -9
21 -25 58 -35 81 -33 73 -39 92 -29 98 5 3 13 -1 17 -10 13 -23 75 2 67 27 -6
21 2 23 20 5z m716 -15 c0 -9 -75 -42 -93 -41 -6 0 11 11 38 24 59 28 55 27
55 17z m-724 -69 c3 -16 14 -52 24 -81 12 -33 14 -54 8 -58 -13 -8 -28 15 -22
31 3 7 -2 15 -10 18 -9 4 -16 18 -16 32 0 14 -4 25 -9 25 -17 0 -24 42 -10 51
22 14 28 11 35 -18z m594 12 c0 -9 -62 -36 -73 -32 -7 2 4 11 23 20 38 17 50
20 50 12z m-734 -52 c18 -24 17 -33 -1 -33 -8 0 -15 4 -15 9 0 5 -3 16 -6 25
-8 21 6 20 22 -1z m-541 -3 c3 -5 -1 -10 -10 -10 -9 0 -13 5 -10 10 3 6 8 10
10 10 2 0 7 -4 10 -10z m1147 -6 c-12 -8 -28 -13 -35 -11 -7 3 -1 9 13 15 37
16 47 14 22 -4z m-1018 -16 c24 -34 19 -45 -24 -52 -22 -3 -40 -11 -40 -17 0
-6 -6 -9 -12 -6 -7 2 -37 -7 -66 -20 -57 -25 -103 -32 -68 -10 10 7 34 24 53
39 19 15 43 25 54 23 11 -2 17 0 13 6 -3 6 4 8 18 4 12 -3 30 -1 38 5 13 9 13
12 -2 24 -10 7 -15 16 -11 19 13 13 32 7 47 -15z m196 -11 c16 4 19 2 14 -10
-3 -9 -10 -15 -14 -14 -9 2 -10 -11 -3 -31 3 -7 13 -10 25 -6 13 4 19 1 17 -8
-1 -7 6 -30 15 -52 9 -21 15 -41 12 -44 -3 -3 -14 15 -25 39 -12 26 -27 44
-37 44 -10 0 -23 17 -34 45 -17 43 -16 78 1 47 6 -9 17 -13 29 -10z m153 -7
c4 0 4 7 0 16 -4 12 -1 15 13 12 23 -4 26 -42 4 -44 -32 -3 -35 -4 -24 -12 13
-8 29 -52 19 -52 -8 0 -45 81 -44 100 0 12 2 12 13 -2 7 -10 16 -18 19 -18z
m-443 5 c-33 -19 -50 -18 -26 0 11 8 27 15 35 15 10 -1 7 -6 -9 -15z m718 -20
c-3 -3 -9 2 -12 12 -6 14 -5 15 5 6 7 -7 10 -15 7 -18z m302 17 c0 -9 -62 -34
-68 -27 -3 3 41 26 66 34 1 1 2 -3 2 -7z m-816 -44 c-9 -14 -24 2 -24 25 1 21
1 21 15 3 8 -10 12 -23 9 -28z m157 12 c5 0 9 -4 9 -10 0 -5 -6 -10 -14 -10
-15 0 -28 35 -17 45 3 4 7 0 9 -9 2 -9 8 -16 13 -16z m169 2 c0 -15 -2 -15
-10 -2 -13 20 -13 33 0 25 6 -3 10 -14 10 -23z m304 -11 c-6 -6 -24 19 -24 34
1 6 7 1 15 -9 8 -11 12 -22 9 -25z m-328 -32 c8 -24 14 -46 14 -48 0 -3 -13
13 -29 34 -16 22 -27 45 -24 52 9 24 26 8 39 -38z m-372 -21 c9 -29 21 -62 25
-73 5 -11 16 -40 26 -65 9 -25 21 -53 26 -62 11 -22 12 -51 0 -44 -4 3 -16 27
-25 53 -23 63 -35 92 -52 126 -8 16 -14 37 -14 46 0 10 -3 20 -6 23 -5 5 -83
-22 -149 -52 -11 -5 -31 -11 -45 -14 -38 -9 96 55 163 78 9 3 17 12 17 21 0
33 18 12 34 -37z m771 42 c-3 -5 -11 -10 -16 -10 -6 0 -7 5 -4 10 3 6 11 10
16 10 6 0 7 -4 4 -10z m-682 -32 c6 -21 2 -36 -7 -27 -10 11 -16 49 -8 49 5 0
12 -10 15 -22z m157 -4 c0 -8 -4 -12 -10 -9 -5 3 -10 13 -10 21 0 8 5 12 10 9
6 -3 10 -13 10 -21z m93 -24 c3 -11 1 -18 -4 -14 -5 3 -9 12 -9 20 0 20 7 17
13 -6z m-163 0 c0 -5 -2 -10 -4 -10 -3 0 -8 5 -11 10 -3 6 -1 10 4 10 6 0 11
-4 11 -10z m-66 -26 c8 -21 8 -24 -3 -24 -5 0 -11 9 -14 20 -6 24 8 27 17 4z
m-144 -14 c0 -5 -2 -10 -4 -10 -2 0 -12 -3 -20 -6 -12 -5 -15 -2 -10 10 7 17
34 22 34 6z m394 -16 c3 -8 2 -12 -4 -9 -6 3 -10 10 -10 16 0 14 7 11 14 -7z
m131 -4 c-3 -5 -11 -10 -16 -10 -6 0 -7 5 -4 10 3 6 11 10 16 10 6 0 7 -4 4
-10z m-254 -13 c-1 -12 -15 -9 -19 4 -3 6 1 10 8 8 6 -3 11 -8 11 -12z m-101
-32 c0 -5 -5 -3 -10 5 -5 8 -10 20 -10 25 0 6 5 3 10 -5 5 -8 10 -19 10 -25z
m275 15 c-3 -5 -12 -10 -18 -10 -7 0 -6 4 3 10 19 12 23 12 15 0z m-415 -10
c0 -5 -9 -10 -21 -10 -11 0 -17 5 -14 10 3 6 13 10 21 10 8 0 14 -4 14 -10z
m337 -26 c-3 -3 -12 -4 -19 -1 -8 3 -5 6 6 6 11 1 17 -2 13 -5z m-47 -86 c-26
-57 -26 -149 -1 -205 31 -68 93 -120 171 -144 91 -27 107 -40 93 -70 -9 -17
-12 -19 -12 -7 -1 28 -28 46 -86 58 -29 6 -70 22 -89 35 -20 14 -43 22 -52 18
-10 -4 -15 -1 -13 8 2 8 -9 37 -23 64 -14 28 -28 63 -32 79 -7 27 -8 27 -21
10 -14 -18 -14 -17 -10 11 13 89 17 105 25 105 6 0 10 7 10 15 0 8 5 15 10 15
6 0 10 6 10 13 0 7 5 18 12 25 24 24 27 11 8 -30z m-958 -3 c0 -5 -5 -11 -11
-13 -6 -2 -11 4 -11 13 0 9 5 15 11 13 6 -2 11 -8 11 -13z m708 -9 c0 -3 -4
-8 -10 -11 -5 -3 -10 -1 -10 4 0 6 5 11 10 11 6 0 10 -2 10 -4z m-1400 -56 c0
-5 -4 -10 -10 -10 -5 0 -10 5 -10 10 0 6 5 10 10 10 6 0 10 -4 10 -10z"/>
<path d="M3200 5709 c0 -11 5 -17 10 -14 6 3 10 13 10 21 0 8 -4 14 -10 14 -5
0 -10 -9 -10 -21z"/>
<path d="M3334 5575 c-13 -27 -9 -36 12 -28 15 5 19 39 6 47 -4 2 -12 -6 -18
-19z"/>
<path d="M2942 4958 c3 -7 15 -15 28 -16 21 -3 22 -2 11 12 -16 19 -44 21 -39
4z"/>
<path d="M3370 4810 c-13 -8 -12 -10 3 -10 9 0 17 5 17 10 0 12 -1 12 -20 0z"/>
<path d="M3513 4493 c4 -3 0 -15 -10 -25 -9 -10 -11 -18 -5 -18 6 0 16 9 22
19 13 25 13 31 -2 31 -6 0 -8 -3 -5 -7z"/>
<path d="M3590 4416 c0 -14 5 -28 10 -31 6 -3 10 5 10 19 0 14 -4 28 -10 31
-6 3 -10 -5 -10 -19z"/>
<path d="M3730 4109 c0 -26 -2 -30 -15 -19 -20 16 -33 5 -30 -25 11 -95 25
-127 39 -89 9 24 7 31 -4 14 -6 -9 -10 -10 -10 -3 0 6 4 15 10 18 12 7 80 -57
80 -76 1 -9 4 -8 11 5 18 29 2 95 -31 133 -17 19 -30 43 -30 53 0 11 -4 20
-10 20 -5 0 -10 -14 -10 -31z"/>
<path d="M3545 4090 c-3 -5 -2 -10 4 -10 5 0 13 5 16 10 3 6 2 10 -4 10 -5 0
-13 -4 -16 -10z"/>
<path d="M4110 3700 c0 -5 12 -10 28 -10 21 0 24 2 12 10 -20 13 -40 13 -40 0z"/>
<path d="M2947 3683 c-8 -12 3 -53 14 -53 15 0 17 15 5 39 -7 13 -16 19 -19
14z"/>
<path d="M2998 3672 c9 -10 19 -14 20 -10 9 22 19 4 18 -32 -1 -41 -26 -59
-26 -18 0 20 -1 21 -20 3 -11 -10 -20 -21 -20 -25 0 -3 35 -12 78 -18 74 -12
118 -26 192 -60 50 -23 57 -25 40 -10 -8 7 -16 26 -17 41 -1 24 2 28 18 24 23
-6 26 11 3 20 -8 3 -13 12 -10 19 5 13 -87 54 -123 54 -10 0 -35 7 -54 15 -20
8 -55 15 -77 15 -38 0 -39 -1 -22 -18z m132 -33 c0 6 7 11 15 11 11 0 15 -11
15 -40 0 -38 -8 -49 -24 -32 -4 4 -24 7 -44 7 -35 0 -37 1 -37 35 -1 50 3 53
41 30 19 -12 34 -17 34 -11z m99 -53 c10 -12 8 -17 -6 -25 -15 -7 -22 -5 -30
9 -19 29 13 44 36 16z"/>
<path d="M3990 3660 c-12 -8 -12 -10 -1 -10 9 0 12 -8 9 -25 -3 -13 -1 -22 3
-19 5 3 9 0 9 -7 0 -7 7 -20 16 -30 8 -9 17 -23 18 -31 1 -7 9 -26 18 -42 22
-42 31 -16 12 39 -17 50 -16 55 13 60 10 2 20 4 22 4 10 2 -44 41 -58 42 -10
0 -12 2 -3 6 6 2 12 9 12 14 0 12 -51 11 -70 -1z"/>
<path d="M4099 3651 c12 -11 24 -32 27 -47 9 -50 44 -75 44 -31 0 38 -12 67
-27 67 -8 0 -11 5 -8 10 4 6 11 8 16 5 5 -4 9 -1 9 4 0 6 -19 11 -42 11 l-41
0 22 -19z"/>
<path d="M3737 3449 c7 -7 15 -10 18 -7 3 3 -2 9 -12 12 -14 6 -15 5 -6 -5z"/>
<path d="M3559 3393 c-16 -4 -33 -42 -24 -51 2 -2 13 -1 24 3 14 4 21 15 21
31 0 13 -1 23 -2 23 -2 -1 -10 -3 -19 -6z"/>
<path d="M3485 3360 c-3 -5 -1 -10 4 -10 6 0 11 5 11 10 0 6 -2 10 -4 10 -3 0
-8 -4 -11 -10z"/>
<path d="M3645 3362 c-14 -10 -14 -52 0 -52 7 0 27 -3 44 -6 29 -6 31 -5 29
20 -2 22 -7 26 -22 22 -11 -3 -24 1 -30 9 -6 8 -15 11 -21 7z"/>
<path d="M3895 3240 c-4 -6 9 -10 32 -10 28 0 34 3 23 10 -20 13 -47 13 -55 0z"/>
<path d="M3281 3198 c-5 -13 -7 -34 -5 -48 1 -14 3 -29 3 -34 2 -25 13 8 17
53 4 54 -1 65 -15 29z"/>
<path d="M3771 3204 c11 -10 24 -13 43 -8 34 8 16 24 -29 24 -26 0 -28 -1 -14
-16z"/>
<path d="M3863 3203 c9 -2 23 -2 30 0 6 3 -1 5 -18 5 -16 0 -22 -2 -12 -5z"/>
<path d="M3263 3073 c-1 -10 -4 -29 -8 -43 -5 -17 -4 -22 3 -15 13 13 26 75
15 75 -5 0 -9 -8 -10 -17z"/>
<path d="M3771 3048 c26 -22 45 -23 53 -2 3 9 6 17 6 18 0 1 -18 2 -40 2 -41
-1 -41 -1 -19 -18z"/>
<path d="M3195 3038 c-29 -16 -29 -16 -15 -33 16 -19 34 -20 26 0 -3 8 2 21
10 30 18 18 8 19 -21 3z"/>
<path d="M4207 2983 c-11 -10 -8 -53 3 -53 6 0 10 14 10 30 0 31 -2 35 -13 23z"/>
<path d="M3170 2960 c20 -13 43 -13 35 0 -3 6 -16 10 -28 10 -18 0 -19 -2 -7
-10z"/>
<path d="M3723 2946 c9 -7 17 -18 17 -25 0 -6 15 -11 35 -11 34 0 40 -7 35
-40 -2 -14 -18 -30 -32 -30 -3 0 -4 9 -1 20 4 15 0 20 -15 20 -23 0 -47 -24
-38 -39 4 -5 1 -13 -5 -17 -6 -3 -15 -1 -19 6 -9 14 -30 -47 -30 -86 0 -19 5
-21 45 -20 33 1 44 5 40 14 -3 8 0 10 6 6 6 -3 24 3 40 15 16 12 43 24 59 28
17 3 28 8 26 11 -9 8 43 44 106 74 68 32 86 34 94 13 4 -8 14 -15 23 -15 26 0
31 -9 20 -37 -10 -27 -4 -63 12 -63 5 0 9 9 9 20 0 11 9 37 20 57 25 46 25 59
3 68 -10 4 -101 10 -203 12 -131 3 -194 9 -217 19 -39 17 -54 18 -30 0z m444
-88 c-3 -8 -6 -5 -6 6 -1 11 2 17 5 13 3 -3 4 -12 1 -19z m-412 -88 c-3 -5
-11 -10 -16 -10 -6 0 -7 5 -4 10 3 6 11 10 16 10 6 0 7 -4 4 -10z"/>
<path d="M3220 2935 c-8 -9 -8 -15 -2 -15 12 0 26 19 19 26 -2 2 -10 -2 -17
-11z"/>
<path d="M3145 2910 c-3 -5 3 -10 14 -10 12 0 21 5 21 10 0 6 -6 10 -14 10 -8
0 -18 -4 -21 -10z"/>
<path d="M3148 2873 c-9 -2 -18 -10 -21 -16 -6 -16 20 -40 28 -27 3 6 0 10 -7
10 -8 1 -6 6 6 15 22 16 19 23 -6 18z"/>
<path d="M3195 2871 c-3 -5 -1 -12 5 -16 5 -3 10 1 10 9 0 18 -6 21 -15 7z"/>
<path d="M4018 2813 c-8 -10 -19 -25 -23 -33 -8 -13 -7 -13 9 -1 16 14 41 51
33 51 -2 0 -11 -8 -19 -17z"/>
<path d="M3110 2810 c0 -5 5 -10 10 -10 6 0 10 5 10 10 0 6 -4 10 -10 10 -5 0
-10 -4 -10 -10z"/>
<path d="M3148 2743 c7 -3 16 -2 19 1 4 3 -2 6 -13 5 -11 0 -14 -3 -6 -6z"/>
<path d="M4121 2674 c0 -11 3 -14 6 -6 3 7 2 16 -1 19 -3 4 -6 -2 -5 -13z"/>
<path d="M3045 2650 c-3 -5 1 -10 9 -10 9 0 16 5 16 10 0 6 -4 10 -9 10 -6 0
-13 -4 -16 -10z"/>
<path d="M3550 2566 c0 -9 5 -16 10 -16 6 0 10 4 10 9 0 6 -4 13 -10 16 -5 3
-10 -1 -10 -9z"/>
<path d="M3643 2503 c-19 -7 -16 -20 7 -26 13 -3 20 0 20 8 0 17 -11 24 -27
18z"/>
<path d="M3567 2479 c7 -7 15 -10 18 -7 3 3 -2 9 -12 12 -14 6 -15 5 -6 -5z"/>
<path d="M3055 2400 c-3 -5 -1 -10 4 -10 6 0 11 5 11 10 0 6 -2 10 -4 10 -3 0
-8 -4 -11 -10z"/>
<path d="M3603 2273 c-10 -28 -9 -30 8 -26 21 6 21 8 10 37 -7 18 -9 17 -18
-11z"/>
<path d="M3590 2204 c0 -14 3 -14 15 -4 8 7 15 14 15 16 0 2 -7 4 -15 4 -8 0
-15 -7 -15 -16z"/>
<path d="M1741 4283 c-16 -17 -11 -25 8 -14 7 5 12 13 10 19 -2 6 -10 4 -18
-5z"/>
<path d="M1718 4243 c7 -3 16 -2 19 1 4 3 -2 6 -13 5 -11 0 -14 -3 -6 -6z"/>
<path d="M2055 3990 c-3 -5 -2 -10 3 -10 6 0 8 -9 5 -21 -3 -12 -1 -51 5 -87
6 -37 15 -100 21 -141 5 -40 14 -78 19 -83 10 -10 7 51 -9 182 -6 47 -12 104
-12 127 -2 41 -17 57 -32 33z"/>
<path d="M1720 3880 c0 -5 9 -10 20 -10 11 0 20 5 20 10 0 6 -9 10 -20 10 -11
0 -20 -4 -20 -10z"/>
<path d="M1879 3688 c0 -7 -2 -26 -4 -41 -3 -21 0 -27 11 -25 8 2 15 6 15 11
-1 4 -1 21 -1 37 0 28 -19 44 -21 18z"/>
<path d="M1992 3570 c0 -19 2 -27 5 -17 2 9 2 25 0 35 -3 9 -5 1 -5 -18z"/>
<path d="M1890 3560 c0 -5 5 -10 10 -10 6 0 10 5 10 10 0 6 -4 10 -10 10 -5 0
-10 -4 -10 -10z"/>
<path d="M1902 3529 c2 -7 10 -15 17 -17 8 -3 12 1 9 9 -2 7 -10 15 -17 17 -8
3 -12 -1 -9 -9z"/>
<path d="M2196 3489 c-48 -8 -78 -30 -53 -38 7 -2 14 -7 17 -11 3 -4 20 -12
38 -18 25 -9 34 -8 38 1 3 10 28 12 77 8 5 -1 6 -9 3 -19 -4 -11 2 -22 16 -31
19 -12 23 -11 41 13 10 15 33 34 51 43 17 9 25 18 19 20 -22 8 -14 23 11 23
14 0 28 4 31 10 7 12 -216 11 -289 -1z m179 -29 c-11 -5 -27 -9 -35 -9 -13 -1
-13 0 0 9 8 5 24 9 35 9 l20 0 -20 -9z m-98 -6 c-3 -3 -12 -4 -19 -1 -8 3 -5
6 6 6 11 1 17 -2 13 -5z"/>
<path d="M2650 3441 c0 -6 5 -13 10 -16 6 -3 10 1 10 9 0 9 -4 16 -10 16 -5 0
-10 -4 -10 -9z"/>
<path d="M2160 3415 c0 -2 9 -9 20 -15 16 -9 18 -8 14 5 -5 13 -34 22 -34 10z"/>
<path d="M2257 3363 c-7 -43 13 -73 48 -73 21 0 22 3 14 47 -10 53 -8 49 -35
57 -18 6 -22 2 -27 -31z m36 -23 c-7 -28 -23 -36 -23 -11 0 10 6 22 13 24 6 3
13 6 14 6 0 1 -1 -8 -4 -19z"/>
<path d="M2485 3350 c-3 -6 1 -7 9 -4 18 7 21 14 7 14 -6 0 -13 -4 -16 -10z"/>
<path d="M2146 3244 c-8 -20 0 -32 14 -18 5 5 5 15 1 22 -6 11 -10 10 -15 -4z"/>
<path d="M2271 3234 c0 -11 3 -14 6 -6 3 7 2 16 -1 19 -3 4 -6 -2 -5 -13z"/>
<path d="M3232 3383 c2 -10 11 -19 21 -21 16 -3 17 -1 5 17 -16 25 -31 27 -26
4z"/>
<path d="M3120 3340 c0 -5 5 -10 10 -10 6 0 10 5 10 10 0 6 -4 10 -10 10 -5 0
-10 -4 -10 -10z"/>
<path d="M3165 3310 c3 -5 8 -10 11 -10 2 0 4 5 4 10 0 6 -5 10 -11 10 -5 0
-7 -4 -4 -10z"/>
<path d="M2385 3030 c3 -5 11 -10 16 -10 6 0 7 5 4 10 -3 6 -11 10 -16 10 -6
0 -7 -4 -4 -10z"/>
<path d="M2365 3000 c3 -5 8 -10 11 -10 2 0 4 5 4 10 0 6 -5 10 -11 10 -5 0
-7 -4 -4 -10z"/>
<path d="M2390 2981 c0 -5 5 -13 10 -16 6 -3 10 -2 10 4 0 5 -4 13 -10 16 -5
3 -10 2 -10 -4z"/>
<path d="M2365 2940 c3 -5 13 -10 21 -10 8 0 12 5 9 10 -3 6 -13 10 -21 10 -8
0 -12 -4 -9 -10z"/>
<path d="M2348 2918 c7 -7 12 -19 12 -28 0 -9 11 -22 25 -28 33 -15 35 -15 35
3 0 8 -5 15 -11 15 -5 0 -7 5 -4 10 3 6 0 10 -8 10 -8 0 -20 7 -27 15 -7 8
-17 15 -23 15 -7 0 -7 -4 1 -12z"/>
<path d="M5318 2263 c-22 -5 -23 -17 -3 -33 19 -16 55 -3 55 21 0 19 -14 22
-52 12z"/>
<path d="M4864 2095 c-18 -14 -18 -14 6 -15 17 0 30 -10 42 -30 10 -18 22 -28
31 -24 11 4 7 12 -14 36 -16 16 -29 34 -29 39 0 13 -14 11 -36 -6z"/>
<path d="M4650 1933 c0 -4 5 -15 10 -23 8 -13 10 -13 10 2 0 9 -4 20 -10 23
-5 3 -10 3 -10 -2z"/>
<path d="M4525 1870 c3 -5 8 -10 11 -10 2 0 4 5 4 10 0 6 -5 10 -11 10 -5 0
-7 -4 -4 -10z"/>
<path d="M2322 1177 c3 -42 12 -65 34 -93 16 -21 34 -47 40 -57 9 -16 10 -9 6
34 -3 35 -11 60 -23 72 -11 10 -19 27 -19 37 0 11 -10 30 -21 41 l-22 22 5
-56z"/>
<path d="M2420 995 c0 -5 5 -17 10 -25 5 -8 10 -10 10 -5 0 6 -5 17 -10 25 -5
8 -10 11 -10 5z"/>
<path d="M4415 2590 c-3 -5 1 -10 10 -10 9 0 13 5 10 10 -3 6 -8 10 -10 10 -2
0 -7 -4 -10 -10z"/>
<path d="M4283 1645 c7 -14 15 -25 20 -25 10 0 9 8 -3 31 -16 28 -30 23 -17
-6z"/>
<path d="M3955 1650 c-3 -5 -1 -10 4 -10 6 0 11 5 11 10 0 6 -2 10 -4 10 -3 0
-8 -4 -11 -10z"/>
<path d="M3910 1520 c0 -8 5 -22 10 -30 9 -13 10 -13 10 0 0 8 -5 22 -10 30
-9 13 -10 13 -10 0z"/>
</g>
</svg>
